<svg width="52" height="52" viewBox="0 0 52 52" fill="none" xmlns="http://www.w3.org/2000/svg">
<path d="M26 3.25C13.4367 3.25 3.25 13.4367 3.25 26C3.25 38.5633 13.4367 48.75 26 48.75C38.5633 48.75 48.75 38.5633 48.75 26C48.75 13.4367 38.5633 3.25 26 3.25ZM35.8262 18.5707L25.1316 33.3988C24.9822 33.6075 24.7851 33.7774 24.5568 33.8947C24.3285 34.012 24.0756 34.0732 23.8189 34.0732C23.5623 34.0732 23.3093 34.012 23.0811 33.8947C22.8528 33.7774 22.6557 33.6075 22.5063 33.3988L16.1738 24.6238C15.9809 24.3547 16.1738 23.9789 16.5039 23.9789H18.8855C19.4035 23.9789 19.8961 24.2277 20.2008 24.6543L23.8164 29.6715L31.7992 18.6012C32.1039 18.1797 32.5914 17.9258 33.1145 17.9258H35.4961C35.8262 17.9258 36.0191 18.3016 35.8262 18.5707Z" fill="#0187FF"/>
</svg>
