<svg width="42" height="42" viewBox="0 0 42 42" fill="none" xmlns="http://www.w3.org/2000/svg">
<path d="M21 27.9998C20.5911 28.0005 20.1948 27.8581 19.88 27.5973L9.37999 18.8473C9.02262 18.5502 8.79787 18.1234 8.75521 17.6606C8.71254 17.1979 8.85545 16.7371 9.15249 16.3797C9.44954 16.0224 9.87638 15.7976 10.3391 15.755C10.8019 15.7123 11.2626 15.8552 11.62 16.1522L21 23.9923L30.38 16.4323C30.559 16.2869 30.765 16.1783 30.9861 16.1128C31.2072 16.0473 31.439 16.0262 31.6683 16.0505C31.8976 16.0749 32.1198 16.1444 32.3222 16.255C32.5246 16.3655 32.7031 16.515 32.8475 16.6948C33.0078 16.8747 33.1291 17.0858 33.204 17.3148C33.2789 17.5438 33.3057 17.7859 33.2827 18.0257C33.2597 18.2656 33.1874 18.4981 33.0704 18.7087C32.9533 18.9194 32.794 19.1035 32.6025 19.2498L22.1025 27.7023C21.7786 27.9219 21.3904 28.0266 21 27.9998Z" fill="white"/>
</svg>
