<svg width="42" height="42" viewBox="0 0 42 42" fill="none" xmlns="http://www.w3.org/2000/svg">
<path d="M21 27.9998C21.4089 28.0005 21.8052 27.8581 22.12 27.5973L32.62 18.8473C32.9774 18.5502 33.2021 18.1234 33.2448 17.6606C33.2875 17.1979 33.1445 16.7371 32.8475 16.3797C32.5505 16.0224 32.1236 15.7976 31.6609 15.755C31.1981 15.7123 30.7374 15.8552 30.38 16.1522L21 23.9923L11.62 16.4323C11.441 16.2869 11.235 16.1783 11.0139 16.1128C10.7928 16.0473 10.561 16.0262 10.3317 16.0505C10.1024 16.0749 9.88017 16.1444 9.67781 16.255C9.47544 16.3655 9.29692 16.515 9.15251 16.6948C8.99224 16.8747 8.87086 17.0858 8.79598 17.3148C8.72109 17.5438 8.69431 17.7859 8.71731 18.0257C8.74031 18.2656 8.8126 18.4981 8.92964 18.7087C9.04669 18.9194 9.20597 19.1035 9.39751 19.2498L19.8975 27.7023C20.2214 27.9219 20.6096 28.0266 21 27.9998Z" fill="#0187FF"/>
</svg>
