<svg width="22" height="22" viewBox="0 0 22 22" fill="none" xmlns="http://www.w3.org/2000/svg">
<g clip-path="url(#clip0_2_38)">
<path d="M18.6239 4.11767C17.2214 3.48517 15.718 3.01767 14.146 2.75183C14.132 2.74915 14.1175 2.75088 14.1045 2.75679C14.0915 2.7627 14.0807 2.7725 14.0735 2.78483C13.881 3.12308 13.6665 3.564 13.5162 3.91233C11.8489 3.66322 10.1538 3.66322 8.48645 3.91233C8.31901 3.52629 8.13019 3.14987 7.92087 2.78483C7.91377 2.77235 7.90304 2.76233 7.8901 2.75611C7.87716 2.74988 7.86263 2.74775 7.84845 2.75C6.27729 3.01583 4.77395 3.48333 3.37054 4.11675C3.35846 4.12182 3.34823 4.13045 3.3412 4.1415C0.488536 8.33525 -0.293381 12.4254 0.0907023 16.4643C0.0917711 16.4741 0.0948415 16.4837 0.0997268 16.4924C0.104612 16.501 0.11121 16.5086 0.119119 16.5147C1.78415 17.7269 3.64126 18.6503 5.6127 19.2463C5.62645 19.2506 5.64114 19.2506 5.65488 19.2463C5.66862 19.242 5.68075 19.2338 5.6897 19.2225C6.1132 18.6542 6.49087 18.0538 6.81354 17.4231C6.83279 17.3864 6.81445 17.3424 6.77595 17.3278C6.18379 17.1048 5.61003 16.8356 5.05995 16.5229C5.05007 16.5173 5.04174 16.5093 5.03571 16.4996C5.02969 16.49 5.02615 16.479 5.02542 16.4676C5.0247 16.4562 5.0268 16.4449 5.03155 16.4345C5.03629 16.4242 5.04353 16.4152 5.05262 16.4083C5.16812 16.3231 5.28362 16.2342 5.39362 16.1453C5.40352 16.1373 5.41545 16.1322 5.42807 16.1305C5.4407 16.1289 5.45352 16.1308 5.46512 16.1361C9.06487 17.7531 12.9635 17.7531 16.521 16.1361C16.5327 16.1305 16.5456 16.1284 16.5584 16.1298C16.5712 16.1313 16.5834 16.1363 16.5935 16.1443C16.7035 16.2342 16.818 16.3231 16.9345 16.4083C16.9436 16.415 16.951 16.4239 16.9559 16.4342C16.9608 16.4444 16.9631 16.4558 16.9625 16.4671C16.962 16.4785 16.9586 16.4895 16.9528 16.4992C16.9469 16.509 16.9387 16.5171 16.929 16.5229C16.3808 16.8383 15.8106 17.105 15.212 17.3268C15.2028 17.3302 15.1945 17.3354 15.1875 17.3423C15.1805 17.3491 15.175 17.3573 15.1715 17.3665C15.1679 17.3756 15.1663 17.3853 15.1668 17.3951C15.1674 17.4049 15.17 17.4144 15.1745 17.4231C15.5045 18.0528 15.8821 18.6523 16.2974 19.2216C16.306 19.2333 16.318 19.242 16.3318 19.2466C16.3456 19.2512 16.3605 19.2514 16.3744 19.2473C18.3492 18.6529 20.2093 17.729 21.8762 16.5147C21.8843 16.509 21.8912 16.5016 21.8962 16.4931C21.9013 16.4846 21.9045 16.475 21.9055 16.4652C22.3639 11.7957 21.1374 7.7385 18.6523 4.14333C18.6462 4.13165 18.6361 4.12254 18.6239 4.11767ZM7.35162 14.0048C6.26812 14.0048 5.37437 13.0249 5.37437 11.8232C5.37437 10.6205 6.2507 9.6415 7.35162 9.6415C8.46079 9.6415 9.34629 10.6288 9.32887 11.8232C9.32887 13.0258 8.45254 14.0048 7.35162 14.0048V14.0048ZM14.662 14.0048C13.5776 14.0048 12.6848 13.0249 12.6848 11.8232C12.6848 10.6205 13.5602 9.6415 14.662 9.6415C15.7712 9.6415 16.6567 10.6288 16.6393 11.8232C16.6393 13.0258 15.7721 14.0048 14.662 14.0048V14.0048Z" fill="white"/>
</g>
<defs>
<clipPath id="clip0_2_38">
<rect width="22" height="22" fill="white"/>
</clipPath>
</defs>
</svg>
