<svg width="168" height="27" viewBox="0 0 168 27" fill="none" xmlns="http://www.w3.org/2000/svg">
<path d="M0.7 26C2.53167 26.3617 3.96083 26.3092 4.9875 25.8425C6.02583 25.3758 6.81333 24.5708 7.35 23.4275C7.88667 22.2842 8.31833 20.8783 8.645 19.21C8.91333 17.9267 9.14083 16.6025 9.3275 15.2375C9.51417 13.8725 9.67167 12.5542 9.8 11.2825C9.92833 10.0108 10.0275 8.85 10.0975 7.8C10.1792 6.75 10.2433 5.89833 10.29 5.245H18.34V26H23.1V0.799999H5.915C5.88 1.55833 5.8275 2.57916 5.7575 3.8625C5.6875 5.13417 5.58833 6.54583 5.46 8.0975C5.33167 9.64917 5.16833 11.2358 4.97 12.8575C4.78333 14.4675 4.55 16.0017 4.27 17.46C4.03667 18.6967 3.78 19.6592 3.5 20.3475C3.22 21.0242 2.85833 21.4908 2.415 21.7475C1.98333 21.9925 1.41167 22.0917 0.7 22.045V26ZM38.8314 26.525C41.3514 26.525 43.5214 25.9767 45.3414 24.88C47.1731 23.7833 48.5789 22.2492 49.5589 20.2775C50.5506 18.3058 51.0464 16.0133 51.0464 13.4C51.0464 10.7867 50.5506 8.49417 49.5589 6.5225C48.5789 4.55083 47.1731 3.01667 45.3414 1.92C43.5214 0.823333 41.3514 0.274999 38.8314 0.274999C36.3114 0.274999 34.1356 0.823333 32.3039 1.92C30.4839 3.01667 29.0781 4.55083 28.0864 6.5225C27.1064 8.49417 26.6164 10.7867 26.6164 13.4C26.6164 16.0133 27.1064 18.3058 28.0864 20.2775C29.0781 22.2492 30.4839 23.7833 32.3039 24.88C34.1356 25.9767 36.3114 26.525 38.8314 26.525ZM38.8314 22.045C36.4397 22.01 34.6431 21.2167 33.4414 19.665C32.2514 18.1133 31.6564 16.025 31.6564 13.4C31.6564 10.775 32.2514 8.66917 33.4414 7.0825C34.6431 5.49583 36.4397 4.72 38.8314 4.755C41.2347 4.79 43.0314 5.58333 44.2214 7.135C45.4114 8.68667 46.0064 10.775 46.0064 13.4C46.0064 16.025 45.4114 18.1308 44.2214 19.7175C43.0314 21.3042 41.2347 22.08 38.8314 22.045ZM54.5398 26H59.2998V5.245H70.9898V0.799999H54.5398V26ZM84.598 26.525C87.118 26.525 89.288 25.9767 91.108 24.88C92.9397 23.7833 94.3455 22.2492 95.3255 20.2775C96.3172 18.3058 96.813 16.0133 96.813 13.4C96.813 10.7867 96.3172 8.49417 95.3255 6.5225C94.3455 4.55083 92.9397 3.01667 91.108 1.92C89.288 0.823333 87.118 0.274999 84.598 0.274999C82.078 0.274999 79.9022 0.823333 78.0705 1.92C76.2505 3.01667 74.8447 4.55083 73.853 6.5225C72.873 8.49417 72.383 10.7867 72.383 13.4C72.383 16.0133 72.873 18.3058 73.853 20.2775C74.8447 22.2492 76.2505 23.7833 78.0705 24.88C79.9022 25.9767 82.078 26.525 84.598 26.525ZM84.598 22.045C82.2063 22.01 80.4097 21.2167 79.208 19.665C78.018 18.1133 77.423 16.025 77.423 13.4C77.423 10.775 78.018 8.66917 79.208 7.0825C80.4097 5.49583 82.2063 4.72 84.598 4.755C87.0013 4.79 88.798 5.58333 89.988 7.135C91.178 8.68667 91.773 10.775 91.773 13.4C91.773 16.025 91.178 18.1308 89.988 19.7175C88.798 21.3042 87.0013 22.08 84.598 22.045ZM105.468 26H110.228V5.245H118.173V0.799999H97.5229V5.245H105.468V26ZM141.6 26H136.77V9.2L125.815 26H120.985V0.799999H125.815V17.6L136.77 0.799999H141.6V26ZM146.483 26H151.243V5.245H162.513V26H167.273V0.799999H146.483V26Z" fill="white"/>
</svg>
