<svg width="21" height="21" viewBox="0 0 21 21" fill="none" xmlns="http://www.w3.org/2000/svg">
<path d="M20.6876 4.31988C19.957 4.64363 19.1721 4.86238 18.347 4.96126C19.1984 4.45182 19.8353 3.65004 20.139 2.70551C19.3391 3.18062 18.4637 3.51505 17.5508 3.69426C16.9368 3.03876 16.1237 2.60429 15.2375 2.4583C14.3514 2.3123 13.4418 2.46295 12.6501 2.88685C11.8583 3.31076 11.2287 3.9842 10.8589 4.80262C10.4891 5.62105 10.3999 6.53866 10.605 7.41301C8.98424 7.33163 7.39868 6.91036 5.95126 6.17655C4.50383 5.44273 3.22687 4.41277 2.20326 3.15351C1.85326 3.75726 1.65201 4.45726 1.65201 5.20276C1.65162 5.87388 1.81689 6.53472 2.13315 7.12665C2.44942 7.71858 2.9069 8.22329 3.46501 8.59601C2.81775 8.57541 2.18477 8.40052 1.61876 8.08588V8.13838C1.6187 9.07965 1.94429 9.99196 2.5403 10.7205C3.1363 11.449 3.96601 11.9489 4.88864 12.1354C4.2882 12.2979 3.65868 12.3218 3.04764 12.2054C3.30795 13.0153 3.81501 13.7235 4.49783 14.2309C5.18066 14.7384 6.00506 15.0195 6.85564 15.0351C5.41174 16.1686 3.62854 16.7835 1.79289 16.7808C1.46772 16.7808 1.14283 16.7619 0.819885 16.7239C2.68318 17.9219 4.85218 18.5577 7.06739 18.5553C14.5661 18.5553 18.6655 12.3445 18.6655 6.95801C18.6655 6.78301 18.6611 6.60626 18.6533 6.43126C19.4506 5.85461 20.1389 5.14054 20.6859 4.32251L20.6876 4.31988V4.31988Z" fill="white"/>
</svg>
